<?xml version="1.0" encoding="UTF-8" standalone="no"?>
<!DOCTYPE svg PUBLIC "-//W3C//DTD SVG 1.1//EN" "http://www.w3.org/Graphics/SVG/1.1/DTD/svg11.dtd">
<!-- Created with Vectornator (http://vectornator.io/) -->
<svg height="100%" stroke-miterlimit="10" style="fill-rule:nonzero;clip-rule:evenodd;stroke-linecap:round;stroke-linejoin:round;" version="1.1" viewBox="979.588 203.228 776.111 786.14" width="100%" xml:space="preserve" xmlns="http://www.w3.org/2000/svg" xmlns:vectornator="http://vectornator.io" xmlns:xlink="http://www.w3.org/1999/xlink">
<defs>
<linearGradient gradientTransform="matrix(751.111 0 0 751.111 993.824 586.45)" gradientUnits="userSpaceOnUse" id="LinearGradient" x1="0" x2="1" y1="0" y2="0">
<stop offset="0.0313901" stop-color="#f36fb5"/>
<stop offset="0.429547" stop-color="#e9499e"/>
<stop offset="0.578458" stop-color="#ab54f2"/>
<stop offset="1" stop-color="#ad59f2"/>
</linearGradient>
<filter color-interpolation-filters="sRGB" filterUnits="userSpaceOnUse" height="786.14" id="Filter" width="776.111" x="979.588" y="203.228">
<feDropShadow dx="-1.73652" dy="9.84807" flood-color="#b054ed" flood-opacity="1" in="SourceGraphic" result="Shadow" stdDeviation="5"/>
</filter>
</defs>
<clipPath id="ArtboardFrame">
<rect height="786.14" width="776.111" x="979.588" y="203.228"/>
</clipPath>
<g clip-path="url(#ArtboardFrame)" id="Layer" vectornator:layerName="Layer">
<path d="M1100.26 205.887C1067.65 206.209 1033.89 217.027 1012.71 242.718C1009.13 247.059 1005.98 251.743 1003.37 256.724C1001.08 261.088 999.196 265.666 997.727 270.371C989.239 297.556 995.565 326.699 1007.41 351.849C1016.12 370.363 1027.82 387.353 1040.75 403.164C1063.71 431.25 1090.97 455.675 1121.22 475.679C1156.19 498.804 1194.68 515.773 1234.85 527.4C1233.01 543.468 1230.98 559.509 1228.68 575.512C1227.43 584.193 1226.31 592.913 1225.02 601.588C1221.92 622.487 1218.38 643.32 1214.51 664.089C1203.24 724.413 1188.82 784.157 1171.87 843.129C1165.48 865.345 1158.74 887.459 1151.55 909.43C1146.63 924.492 1141.53 939.504 1136.02 954.363C1134.13 959.098 1136.44 964.473 1141.18 966.361C1145.91 968.25 1151.29 965.934 1153.18 961.199C1163.55 936.328 1172.79 910.98 1181.69 885.553C1195.24 846.841 1207.62 807.707 1218.81 768.248C1229.83 729.394 1239.68 690.215 1248.16 650.728C1253.1 627.737 1257.63 604.595 1261.33 581.368C1263.69 566.556 1265.56 551.64 1267.3 536.745C1267.35 536.387 1267.38 536.028 1267.42 535.67C1318.56 546.611 1371.63 549.355 1423.23 545.134C1427.73 544.767 1432.23 544.341 1436.71 543.868C1434.02 555.436 1431.39 567.03 1428.97 578.667C1419.11 626.12 1412.49 674.143 1408.99 722.478C1406.89 751.32 1405.58 780.169 1405.76 809.094C1406.05 856.269 1409.9 903.33 1417.64 949.87C1418.7 955.974 1424.51 960.082 1430.62 959.024C1436.72 957.966 1440.81 952.15 1439.75 946.046C1426.76 874.019 1423.51 800.896 1428.68 727.927C1429.5 716.357 1430.73 704.794 1432.05 693.271C1434.29 673.777 1437.07 654.345 1440.37 635.001C1444.65 609.877 1449.59 584.791 1455.74 560.049C1457.34 553.6 1459.09 547.179 1460.83 540.761C1468.09 539.679 1475.34 538.519 1482.55 537.152C1527.97 528.548 1572.63 514.404 1613.84 493.318C1622.1 489.093 1630.2 484.571 1638.12 479.742C1681.2 453.472 1721.56 416.347 1737.77 367.241C1739.94 360.658 1741.65 353.944 1742.86 347.117C1744.37 338.56 1745.08 329.849 1744.91 321.16C1744.7 310.156 1743.12 299.166 1740.08 288.584C1735.55 272.775 1727.78 257.881 1717.07 245.371C1708.51 235.369 1698.09 226.921 1686.38 220.873C1676.45 215.74 1665.64 212.347 1654.54 210.93C1646.86 209.948 1639.06 209.915 1631.36 210.763C1586.82 215.666 1551.16 249.013 1527.32 284.76C1523.53 290.447 1520.06 296.345 1516.71 302.303C1511.75 311.121 1507.2 320.161 1502.99 329.358C1496.04 344.523 1490.35 360.269 1485.23 376.132C1483.44 381.666 1481.77 387.225 1480.16 392.815C1479.69 394.459 1479.21 396.114 1478.75 397.762C1478.64 398.166 1478.53 398.577 1478.42 398.981C1478.31 399.377 1477.82 400.464 1478.08 400.152C1477.98 400.43 1477.88 400.711 1477.77 400.989C1477.17 402.592 1476.56 404.206 1475.98 405.817C1474.4 410.179 1472.89 414.542 1471.42 418.938C1467.07 431.873 1463.08 444.948 1459.15 458.016C1455 471.853 1451.18 485.768 1447.54 499.747C1447.33 500.549 1447.15 501.358 1446.94 502.161C1435.45 503.797 1423.9 505.085 1412.33 505.961C1365.55 509.505 1317.52 507.031 1271.22 497.237C1272.96 476.616 1274.23 455.941 1274.86 435.263C1275.29 421.05 1275.71 406.763 1275.05 392.552C1274.42 379.076 1272.87 365.641 1270.15 352.423C1264.71 326.052 1254.51 300.589 1239 278.498C1210.22 237.468 1164.19 210.434 1114.12 206.389C1109.55 206.02 1104.92 205.841 1100.26 205.887ZM1105.33 239.731C1110.18 239.854 1115.03 240.249 1119.84 240.926C1145.71 244.565 1170.35 256.039 1189.96 273.287C1200.84 282.857 1210.15 294.144 1217.61 306.557C1229.67 326.619 1236.75 349.372 1239.98 372.475C1242.05 387.202 1242.34 401.973 1242.16 416.811C1242.04 426.073 1241.79 435.352 1241.44 444.608C1240.89 459.449 1239.85 474.244 1238.62 489.039C1204.95 479.115 1172.62 464.968 1142.88 446.018C1115.93 428.848 1091.45 407.837 1070.67 383.541C1059.33 370.28 1048.9 356.06 1040.89 340.52C1030.25 319.887 1022.36 293.198 1034.49 271.423C1046 250.753 1070.94 241.767 1093.35 240.041C1097.34 239.734 1101.33 239.629 1105.33 239.731ZM1640.73 252.374C1648.42 252.142 1656.17 253.431 1663.7 256.676C1667.94 258.506 1671.95 260.897 1675.62 263.703C1680.54 267.458 1684.85 271.966 1688.48 276.968C1693.27 283.563 1696.88 290.987 1699.29 298.765C1701.21 304.974 1702.35 311.403 1702.78 317.886C1703.14 323.463 1702.98 329.067 1702.32 334.617C1697.41 375.823 1667.16 408.738 1634.87 432.156C1628.09 437.075 1621.09 441.674 1613.91 445.994C1604.51 451.653 1594.81 456.852 1584.92 461.601C1550.06 478.34 1512.78 489.939 1474.88 497.452C1474.48 497.533 1474.07 497.588 1473.66 497.668C1475.28 492.782 1476.83 487.876 1478.51 483.016C1483.17 469.545 1488.09 456.162 1493.52 442.983C1496.51 435.75 1499.58 428.554 1502.8 421.424C1503.84 419.122 1504.9 416.825 1505.98 414.541C1506.47 413.504 1507.07 412.479 1507.48 411.41C1510.41 403.836 1513.24 396.219 1516.33 388.704C1521.22 376.78 1526.65 365.098 1532.51 353.618C1540.67 337.609 1549.67 322.177 1560.25 307.633C1572.36 290.995 1586.51 275.37 1604.09 264.372C1615.25 257.389 1627.9 252.761 1640.73 252.374Z" fill="url(#LinearGradient)" fill-rule="nonzero" filter="url(#Filter)" stroke="none" vectornator:layerName="Curve 7" vectornator:shadowAngle="1.74533" vectornator:shadowColor="#b054ed" vectornator:shadowOffset="10" vectornator:shadowOpacity="1" vectornator:shadowRadius="10"/>
</g>
</svg>
